<mxfile host="Electron" modified="2023-12-17T22:07:52.099Z" agent="Mozilla/5.0 (Windows NT 10.0; Win64; x64) AppleWebKit/537.36 (KHTML, like Gecko) draw.io/22.1.2 Chrome/114.0.5735.289 Electron/25.9.4 Safari/537.36" etag="TnnwXJLOVHlfCZ7F2ebu" version="22.1.2" type="device">
  <diagram name="Page-1" id="igpqCaPG3RhKc7rGnYrw">
    <mxGraphModel dx="1036" dy="654" grid="1" gridSize="10" guides="1" tooltips="1" connect="1" arrows="1" fold="1" page="1" pageScale="1" pageWidth="850" pageHeight="1100" math="0" shadow="0">
      <root>
        <mxCell id="0" />
        <mxCell id="1" parent="0" />
        <mxCell id="oajf3Gr45OymSx1qcdK4-3" value="" style="edgeStyle=orthogonalEdgeStyle;rounded=0;orthogonalLoop=1;jettySize=auto;html=1;" edge="1" parent="1" source="oajf3Gr45OymSx1qcdK4-1" target="oajf3Gr45OymSx1qcdK4-2">
          <mxGeometry relative="1" as="geometry" />
        </mxCell>
        <mxCell id="oajf3Gr45OymSx1qcdK4-1" value="START" style="ellipse;whiteSpace=wrap;html=1;" vertex="1" parent="1">
          <mxGeometry x="365" y="50" width="120" height="80" as="geometry" />
        </mxCell>
        <mxCell id="oajf3Gr45OymSx1qcdK4-5" value="" style="edgeStyle=orthogonalEdgeStyle;rounded=0;orthogonalLoop=1;jettySize=auto;html=1;" edge="1" parent="1" source="oajf3Gr45OymSx1qcdK4-2" target="oajf3Gr45OymSx1qcdK4-4">
          <mxGeometry relative="1" as="geometry" />
        </mxCell>
        <mxCell id="oajf3Gr45OymSx1qcdK4-2" value="N1, N2, N3&lt;br&gt;MIN&lt;br&gt;TOTAL = 0" style="shape=parallelogram;perimeter=parallelogramPerimeter;whiteSpace=wrap;html=1;fixedSize=1;" vertex="1" parent="1">
          <mxGeometry x="365" y="190" width="120" height="60" as="geometry" />
        </mxCell>
        <mxCell id="oajf3Gr45OymSx1qcdK4-7" value="" style="edgeStyle=orthogonalEdgeStyle;rounded=0;orthogonalLoop=1;jettySize=auto;html=1;" edge="1" parent="1" source="oajf3Gr45OymSx1qcdK4-4" target="oajf3Gr45OymSx1qcdK4-6">
          <mxGeometry relative="1" as="geometry" />
        </mxCell>
        <mxCell id="oajf3Gr45OymSx1qcdK4-4" value="MIN = N1" style="whiteSpace=wrap;html=1;" vertex="1" parent="1">
          <mxGeometry x="365" y="300" width="120" height="60" as="geometry" />
        </mxCell>
        <mxCell id="oajf3Gr45OymSx1qcdK4-9" value="FALSE" style="edgeStyle=orthogonalEdgeStyle;rounded=0;orthogonalLoop=1;jettySize=auto;html=1;" edge="1" parent="1" source="oajf3Gr45OymSx1qcdK4-6" target="oajf3Gr45OymSx1qcdK4-8">
          <mxGeometry relative="1" as="geometry" />
        </mxCell>
        <mxCell id="oajf3Gr45OymSx1qcdK4-11" value="TRUE" style="edgeStyle=orthogonalEdgeStyle;rounded=0;orthogonalLoop=1;jettySize=auto;html=1;" edge="1" parent="1" source="oajf3Gr45OymSx1qcdK4-6" target="oajf3Gr45OymSx1qcdK4-10">
          <mxGeometry relative="1" as="geometry" />
        </mxCell>
        <mxCell id="oajf3Gr45OymSx1qcdK4-6" value="N2 &amp;lt; MIN" style="rhombus;whiteSpace=wrap;html=1;" vertex="1" parent="1">
          <mxGeometry x="360" y="410" width="130" height="80" as="geometry" />
        </mxCell>
        <mxCell id="oajf3Gr45OymSx1qcdK4-13" value="TRUE" style="edgeStyle=orthogonalEdgeStyle;rounded=0;orthogonalLoop=1;jettySize=auto;html=1;" edge="1" parent="1" source="oajf3Gr45OymSx1qcdK4-8" target="oajf3Gr45OymSx1qcdK4-12">
          <mxGeometry relative="1" as="geometry" />
        </mxCell>
        <mxCell id="oajf3Gr45OymSx1qcdK4-16" value="FALSE" style="edgeStyle=orthogonalEdgeStyle;rounded=0;orthogonalLoop=1;jettySize=auto;html=1;" edge="1" parent="1" source="oajf3Gr45OymSx1qcdK4-8" target="oajf3Gr45OymSx1qcdK4-15">
          <mxGeometry relative="1" as="geometry" />
        </mxCell>
        <mxCell id="oajf3Gr45OymSx1qcdK4-8" value="N3 &amp;lt; MIN" style="rhombus;whiteSpace=wrap;html=1;" vertex="1" parent="1">
          <mxGeometry x="360" y="570" width="130" height="80" as="geometry" />
        </mxCell>
        <mxCell id="oajf3Gr45OymSx1qcdK4-18" style="edgeStyle=orthogonalEdgeStyle;rounded=0;orthogonalLoop=1;jettySize=auto;html=1;entryX=0.5;entryY=0;entryDx=0;entryDy=0;" edge="1" parent="1" source="oajf3Gr45OymSx1qcdK4-10" target="oajf3Gr45OymSx1qcdK4-8">
          <mxGeometry relative="1" as="geometry">
            <Array as="points">
              <mxPoint x="720" y="450" />
              <mxPoint x="720" y="540" />
              <mxPoint x="425" y="540" />
            </Array>
          </mxGeometry>
        </mxCell>
        <mxCell id="oajf3Gr45OymSx1qcdK4-10" value="MIN = N2" style="whiteSpace=wrap;html=1;" vertex="1" parent="1">
          <mxGeometry x="575" y="420" width="120" height="60" as="geometry" />
        </mxCell>
        <mxCell id="oajf3Gr45OymSx1qcdK4-19" style="edgeStyle=orthogonalEdgeStyle;rounded=0;orthogonalLoop=1;jettySize=auto;html=1;entryX=0.5;entryY=0;entryDx=0;entryDy=0;" edge="1" parent="1" source="oajf3Gr45OymSx1qcdK4-12" target="oajf3Gr45OymSx1qcdK4-15">
          <mxGeometry relative="1" as="geometry">
            <Array as="points">
              <mxPoint x="710" y="610" />
              <mxPoint x="710" y="710" />
              <mxPoint x="425" y="710" />
            </Array>
          </mxGeometry>
        </mxCell>
        <mxCell id="oajf3Gr45OymSx1qcdK4-12" value="MIN = N3" style="whiteSpace=wrap;html=1;" vertex="1" parent="1">
          <mxGeometry x="575" y="580" width="120" height="60" as="geometry" />
        </mxCell>
        <mxCell id="oajf3Gr45OymSx1qcdK4-21" value="" style="edgeStyle=orthogonalEdgeStyle;rounded=0;orthogonalLoop=1;jettySize=auto;html=1;" edge="1" parent="1" source="oajf3Gr45OymSx1qcdK4-15" target="oajf3Gr45OymSx1qcdK4-20">
          <mxGeometry relative="1" as="geometry" />
        </mxCell>
        <mxCell id="oajf3Gr45OymSx1qcdK4-15" value="TOTAL = N1 + N2 + N3 - MIN" style="whiteSpace=wrap;html=1;" vertex="1" parent="1">
          <mxGeometry x="365" y="740" width="120" height="60" as="geometry" />
        </mxCell>
        <mxCell id="oajf3Gr45OymSx1qcdK4-23" value="" style="edgeStyle=orthogonalEdgeStyle;rounded=0;orthogonalLoop=1;jettySize=auto;html=1;" edge="1" parent="1" source="oajf3Gr45OymSx1qcdK4-20" target="oajf3Gr45OymSx1qcdK4-22">
          <mxGeometry relative="1" as="geometry" />
        </mxCell>
        <mxCell id="oajf3Gr45OymSx1qcdK4-20" value="TOTAL" style="shape=document;whiteSpace=wrap;html=1;boundedLbl=1;" vertex="1" parent="1">
          <mxGeometry x="365" y="870" width="120" height="80" as="geometry" />
        </mxCell>
        <mxCell id="oajf3Gr45OymSx1qcdK4-22" value="END" style="ellipse;whiteSpace=wrap;html=1;" vertex="1" parent="1">
          <mxGeometry x="365" y="1010" width="120" height="80" as="geometry" />
        </mxCell>
      </root>
    </mxGraphModel>
  </diagram>
</mxfile>
